# File created by Blade
# Date/Time:  Thu Jan 22 16:36:26 2015
# Frame Rate: 120.000 fps
#------------------------------------------------------
:FULLY-SPECIFIED
:DEGREES
1460
root -0.496820 5.919546 -9.525094 -38.263687 4.666060 39.927182
RightUpLeg -95.983053 -23.049706 24.781527
RightLeg 136.555851 -0.000000 -0.000000
RightFoot 25.946663 -9.016014 40.253996
RightToeBase 7.757739 -0.000000 -0.000000
LeftUpLeg -27.464274 -20.568662 26.769026
LeftLeg 130.820258 -0.000000 -0.000000
LeftFoot 17.280068 20.102022 -7.911815
LeftToeBase -3.798166 -0.000000 0.000000
Spine 51.997930 7.128558 -22.765528
RightShoulder 4.456474 -31.296522 -26.871951
RightArm 7.474266 -28.159507 83.868773
RightForeArm 9.059770 -0.000000 43.088126
RightHand 30.476145 -0.000000 -84.490577
RightHandThumb1 -24.326973 -0.000000 -32.862282
LeftShoulder -24.994133 37.662750 -9.097037
LeftArm 42.645346 24.701029 -42.170533
LeftForeArm 43.285551 -0.000000 37.907368
LeftHand -18.843991 -0.000000 -26.503098
LeftHandThumb1 -26.253704 0.000000 33.147579
Head -0.034282 14.740275 -30.699689
1461
root -0.486159 5.916452 -9.494594 -38.005808 4.450488 39.781242
RightUpLeg -96.219964 -22.992123 25.231316
RightLeg 136.573661 -0.000000 -0.000000
RightFoot 25.905886 -8.999111 40.000422
RightToeBase 7.903028 -0.000000 -0.000000
LeftUpLeg -26.896115 -20.304561 26.785120
LeftLeg 131.250725 -0.000000 -0.000000
LeftFoot 18.003199 20.128781 -8.471565
LeftToeBase -3.330770 -0.000000 0.000000
Spine 51.931167 7.080862 -22.520506
RightShoulder 4.304493 -31.325380 -26.596115
RightArm 7.577100 -27.933209 83.718857
RightForeArm 8.958092 -0.000000 42.728045
RightHand 30.502074 -0.000000 -84.628342
RightHandThumb1 -24.326973 -0.000000 -32.862282
LeftShoulder -25.914183 38.062741 -9.301926
LeftArm 42.227932 24.494801 -41.931224
LeftForeArm 42.448826 0.000000 41.849264
LeftHand -19.165275 -0.000000 -28.198849
LeftHandThumb1 -26.253704 0.000000 33.147579
Head -0.309395 14.596183 -30.906102
1462
root -0.475530 5.914830 -9.463037 -37.762838 4.269884 39.605812
RightUpLeg -96.468026 -23.011852 25.667374
RightLeg 136.614917 -0.000000 -0.000000
RightFoot 25.852056 -9.030112 39.892811
RightToeBase 8.109050 -0.000000 -0.000000
LeftUpLeg -26.330701 -20.004313 26.750586
LeftLeg 131.679185 -0.000000 -0.000000
LeftFoot 18.463120 20.088733 -8.629376
LeftToeBase -2.835776 -0.000000 0.000000
Spine 51.884175 7.031984 -22.286561
RightShoulder 4.157498 -31.324170 -26.278636
RightArm 7.640175 -27.728741 83.554420
RightForeArm 8.921259 0.000000 42.383641
RightHand 30.476348 -0.000000 -84.721143
RightHandThumb1 -24.326973 -0.000000 -32.862282
LeftShoulder -26.819438 38.554811 -9.523933
LeftArm 41.661747 23.997939 -41.980514
LeftForeArm 41.632063 -0.000000 45.843232
LeftHand -19.650366 -0.000000 -29.596878
LeftHandThumb1 -26.253704 0.000000 33.147579
Head -0.531389 14.449188 -31.026398
1463
root -0.467161 5.911729 -9.436460 -37.531533 4.077660 39.368495
RightUpLeg -96.700699 -23.047357 26.225919
RightLeg 136.624014 -0.000000 -0.000000
RightFoot 25.715198 -9.045763 39.487332
RightToeBase 8.224818 -0.000000 -0.000000
LeftUpLeg -25.776442 -19.630053 26.732044
LeftLeg 132.074319 -0.000000 -0.000000
LeftFoot 18.317112 20.188192 -9.163647
LeftToeBase -1.933479 -0.000000 0.000000
Spine 51.884789 6.983436 -21.973398
RightShoulder 3.957732 -31.298525 -25.921105
RightArm 7.684703 -27.498895 83.380934
RightForeArm 8.882073 0.000000 42.064422
RightHand 30.388335 0.000000 -84.771843
RightHandThumb1 -24.326973 -0.000000 -32.862282
LeftShoulder -27.552457 38.797591 -9.603273
LeftArm 40.724417 23.393438 -42.414218
LeftForeArm 40.573980 -0.000000 49.778767
LeftHand -19.977145 0.000000 -31.142797
LeftHandThumb1 -26.253704 0.000000 33.147579
Head -0.779327 14.269650 -31.100723
1464
root -0.454969 5.908748 -9.414567 -37.277302 3.940770 39.142810
RightUpLeg -96.944515 -23.126435 26.686030
RightLeg 136.629938 -0.000000 -0.000000
RightFoot 25.685233 -9.030539 39.344126
RightToeBase 8.099832 -0.000000 -0.000000
LeftUpLeg -25.267978 -19.197791 26.623260
LeftLeg 132.478853 -0.000000 -0.000000
LeftFoot 18.095018 20.162139 -9.259628
LeftToeBase -1.903039 -0.000000 0.000000
Spine 51.867894 6.959779 -21.705927
RightShoulder 3.770578 -31.302954 -25.536185
RightArm 7.739986 -27.216131 83.219394
RightForeArm 8.851637 -0.000000 41.697952
RightHand 30.447610 -0.000000 -84.724427
RightHandThumb1 -24.326973 -0.000000 -32.862282
LeftShoulder -28.298165 39.209698 -9.737683
LeftArm 39.885529 22.526738 -42.948742
LeftForeArm 39.539158 0.000000 53.646816
LeftHand -20.425786 -0.000000 -32.671881
LeftHandThumb1 -26.253704 0.000000 33.147579
Head -0.904799 14.031605 -31.062762
1465
root -0.442905 5.906035 -9.395263 -37.027388 3.814061 38.883017
RightUpLeg -97.201485 -23.230008 27.184304
RightLeg 136.633099 -0.000000 -0.000000
RightFoot 25.635150 -9.003041 39.062620
RightToeBase 8.135079 -0.000000 -0.000000
LeftUpLeg -24.804709 -18.706679 26.505507
LeftLeg 132.862529 -0.000000 -0.000000
LeftFoot 17.848083 20.121884 -9.298770
LeftToeBase -2.007658 -0.000000 0.000000
Spine 51.871526 6.924407 -21.406091
RightShoulder 3.580635 -31.368453 -25.175359
RightArm 7.913772 -26.960065 83.025671
RightForeArm 8.884243 0.000000 41.265395
RightHand 30.454776 0.000000 -84.685337
RightHandThumb1 -24.326973 -0.000000 -32.862282
LeftShoulder -28.905687 39.471779 -9.804172
LeftArm 38.763679 21.567552 -43.720904
LeftForeArm 38.641006 -0.000000 57.509967
LeftHand -20.722466 0.000000 -33.912845
LeftHandThumb1 -26.253704 0.000000 33.147579
Head -1.013333 13.805536 -31.004498
1466
root -0.434467 5.901256 -9.377463 -36.799634 3.666252 38.575583
RightUpLeg -97.414828 -23.367724 27.671710
RightLeg 136.625537 -0.000000 -0.000000
RightFoot 25.685121 -8.915898 38.969321
RightToeBase 8.127451 -0.000000 -0.000000
LeftUpLeg -24.341265 -18.072917 26.429048
LeftLeg 133.182767 -0.000000 -0.000000
LeftFoot 17.575805 20.201886 -9.313192
LeftToeBase -2.329133 -0.000000 0.000000
Spine 51.905941 6.906914 -21.064327
RightShoulder 3.425094 -31.342961 -24.822977
RightArm 8.013137 -26.714052 82.862380
RightForeArm 9.065236 -0.000000 40.787211
RightHand 30.728381 -0.000000 -84.591728
RightHandThumb1 -24.326973 -0.000000 -32.862282
LeftShoulder -29.398499 39.636380 -9.771569
LeftArm 37.556260 20.559503 -44.697259
LeftForeArm 37.920154 -0.000000 61.152062
LeftHand -20.567576 -0.000000 -35.723595
LeftHandThumb1 -26.253704 0.000000 33.147579
Head -1.093164 13.570119 -30.868654
